<svg xmlns="http://www.w3.org/2000/svg"  viewBox="0 0 96 96" width="96px" height="96px" baseProfile="basic"><path fill="#d22730" d="M72,81.755c-1.537,0-3.073-0.585-4.242-1.755L48,60.242L28.242,80	c-2.339,2.34-6.146,2.34-8.484,0c-0.076-0.076-0.148-0.156-0.215-0.24c-0.222-0.276-0.72-0.738-1.202-1.186	c-1.739-1.616-4.121-3.83-4.142-6.747c-0.008-1.062,0.306-2.638,1.848-4.115l0.016,0.017c0.243-0.277,0.513-0.547,0.787-0.82	L35.758,48L16,28.242c-1.486-1.419-1.798-2.997-1.791-4.062c0.023-2.98,2.48-5.259,4.274-6.923c0.44-0.408,0.895-0.83,1.123-1.094	c0.048-0.057,0.099-0.111,0.152-0.164c2.339-2.34,6.146-2.34,8.484,0L48,35.758L67.758,16c2.339-2.34,6.146-2.34,8.484,0	c0.077,0.076,0.149,0.157,0.216,0.241c0.222,0.275,0.72,0.739,1.202,1.187c1.738,1.616,4.12,3.83,4.141,6.746	c0.008,1.063-0.307,2.638-1.849,4.115l-0.017-0.018c-0.262,0.298-0.562,0.597-0.876,0.912L59.107,49.135	c1.029-0.32,2.199-0.072,3.014,0.744L80,67.758c1.486,1.419,1.798,2.997,1.791,4.062c-0.023,2.98-2.479,5.259-4.273,6.922	c-0.44,0.408-0.896,0.83-1.123,1.095c-0.049,0.057-0.1,0.111-0.152,0.164C75.073,81.17,73.537,81.755,72,81.755z M48,54.245	c1.537,0,3.073,0.585,4.242,1.755l19.754,19.753c0.419-0.463,0.917-0.925,1.441-1.411c0.63-0.585,1.861-1.726,2.253-2.411	L57.879,54.121c-0.923-0.923-1.119-2.297-0.588-3.412c-1.114,0.531-2.49,0.335-3.412-0.588c-1.172-1.171-1.172-3.071,0-4.242	c0,0,20.516-20.516,21.812-21.813c-0.393-0.644-1.529-1.7-2.115-2.244c-0.577-0.537-1.126-1.047-1.583-1.572L52.242,40	c-2.339,2.34-6.146,2.34-8.484,0L24.004,20.247c-0.419,0.463-0.917,0.924-1.44,1.41c-0.631,0.585-1.862,1.727-2.253,2.412L40,43.758	c2.339,2.339,2.339,6.146,0,8.484c0,0-18.463,18.464-19.69,19.691c0.393,0.644,1.53,1.701,2.116,2.246	c0.576,0.536,1.125,1.046,1.582,1.57L43.758,56C44.927,54.83,46.463,54.245,48,54.245z M20.11,72.14	C20.11,72.14,20.11,72.14,20.11,72.14L20.11,72.14z M75.881,72.128h0.01H75.881z" opacity=".3"/><path fill="#d22730" d="M72,80.757c-1.335,0-2.591-0.52-3.535-1.464L48.707,59.535	c-0.39-0.39-1.024-0.39-1.414,0L27.535,79.293c-1.949,1.949-5.121,1.949-7.07,0c-0.051-0.05-0.099-0.104-0.144-0.16	c-0.268-0.332-0.769-0.798-1.3-1.292c-1.695-1.576-3.804-3.536-3.823-6.022c-0.007-0.865,0.255-2.155,1.54-3.385l0.044,0.046	c0.564-0.655,1.508-1.599,3.012-3.103l16.67-16.67c0.39-0.39,0.39-1.024,0-1.414L16.707,27.535	c-1.244-1.188-1.504-2.479-1.498-3.347c0.02-2.549,2.201-4.572,3.954-6.198c0.481-0.446,0.936-0.868,1.2-1.175	c0.033-0.038,0.066-0.074,0.102-0.109c1.949-1.949,5.121-1.949,7.07,0l19.758,19.758c0.39,0.39,1.024,0.39,1.414,0l19.758-19.758	c0.944-0.944,2.2-1.464,3.535-1.464s2.591,0.52,3.535,1.464c0.051,0.051,0.099,0.104,0.144,0.161	c0.268,0.332,0.769,0.798,1.301,1.292c1.694,1.575,3.803,3.536,3.822,6.021c0.006,0.865-0.256,2.155-1.54,3.385l-0.05-0.052	c-0.604,0.707-1.641,1.743-3.338,3.44l-18.46,18.46c-0.78,0.781-2.048,0.781-2.828,0c-0.781-0.781-0.781-2.047,0-2.828	c0,0,21.705-21.706,21.875-21.876c0.149-0.144,0.341-0.351,0.34-0.5c-0.005-0.76-1.658-2.296-2.545-3.121	c-0.597-0.556-1.164-1.082-1.602-1.603c-0.242-0.211-0.511-0.244-0.655-0.244c-0.155,0-0.452,0.038-0.707,0.292L51.535,39.293	c-0.944,0.944-2.2,1.464-3.535,1.464s-2.591-0.52-3.535-1.464L24.707,19.535c-0.255-0.254-0.552-0.292-0.707-0.292	c-0.147,0-0.425,0.035-0.671,0.258c-0.401,0.454-0.909,0.925-1.446,1.422c-0.932,0.865-2.667,2.474-2.674,3.295	c-0.001,0.145,0.159,0.328,0.294,0.457l19.79,19.79c0.944,0.944,1.464,2.2,1.464,3.535s-0.52,2.591-1.464,3.535	c0,0-19.59,19.59-19.754,19.755c-0.149,0.144-0.342,0.351-0.341,0.5c0.006,0.761,1.659,2.297,2.546,3.123	c0.597,0.555,1.163,1.081,1.6,1.601c0.242,0.211,0.511,0.244,0.655,0.244c0.155,0,0.452-0.038,0.707-0.292l19.758-19.758	c0.944-0.944,2.2-1.464,3.535-1.464s2.591,0.52,3.535,1.464l19.758,19.758c0.255,0.254,0.552,0.292,0.707,0.292	c0.147,0,0.424-0.035,0.671-0.258c0.401-0.454,0.91-0.926,1.446-1.423c0.932-0.864,2.667-2.474,2.673-3.294	c0.001-0.145-0.159-0.328-0.294-0.457L58.586,53.414c-0.781-0.781-0.781-2.047,0-2.828c0.78-0.781,2.048-0.781,2.828,0	l17.879,17.879c1.244,1.188,1.504,2.479,1.498,3.347c-0.02,2.548-2.201,4.571-3.953,6.197c-0.481,0.447-0.937,0.869-1.201,1.176	c-0.032,0.038-0.066,0.074-0.102,0.109C74.591,80.237,73.335,80.757,72,80.757z M74.121,77.879h0.01H74.121z" opacity=".3"/><path fill="#d22730" d="M24,79.756c-1.024,0-2.048-0.39-2.828-1.17c-0.025-0.025-0.049-0.052-0.072-0.08	c-0.313-0.388-0.84-0.878-1.398-1.396c-1.554-1.445-3.488-3.243-3.504-5.297c-0.007-0.972,0.407-1.866,1.231-2.655l0.046,0.048	c0.436-0.531,1.324-1.419,3.025-3.121l16.67-16.67c0.78-0.78,0.78-2.048,0-2.828L17.414,26.828	c-0.801-0.766-1.212-1.657-1.205-2.632c0.016-2.117,2.022-3.977,3.634-5.472c0.502-0.466,0.977-0.906,1.278-1.255	c1.61-1.615,4.148-1.614,5.707-0.055l19.758,19.758c0.756,0.755,2.072,0.755,2.828,0l19.758-19.758c1.56-1.56,4.097-1.56,5.656,0	c0.025,0.025,0.05,0.052,0.072,0.08c0.313,0.389,0.84,0.879,1.398,1.398c1.554,1.445,3.488,3.242,3.503,5.296	c0.007,0.972-0.407,1.866-1.232,2.655l-0.051-0.053c-0.463,0.567-1.435,1.54-3.352,3.457l-18.46,18.46	c-0.391,0.391-1.023,0.391-1.414,0s-0.391-1.023,0-1.414c0,0,21.741-21.742,21.876-21.877c0.434-0.417,0.635-0.808,0.632-1.213	c-0.009-1.191-1.592-2.663-2.865-3.846c-0.593-0.552-1.155-1.074-1.556-1.562c-0.782-0.748-2.026-0.737-2.795,0.032L50.828,38.586	c-0.755,0.755-1.76,1.171-2.828,1.171s-2.073-0.416-2.828-1.171L25.414,18.828c-0.78-0.779-2.048-0.779-2.828,0	c-0.323,0.38-0.838,0.857-1.382,1.362c-1.26,1.168-2.984,2.768-2.994,4.021c-0.002,0.261,0.059,0.667,0.603,1.188l19.774,19.773	c0.755,0.755,1.171,1.76,1.171,2.828s-0.416,2.073-1.171,2.828c0,0-19.625,19.625-19.755,19.756	c-0.434,0.417-0.635,0.808-0.632,1.213c0.009,1.192,1.593,2.664,2.866,3.847c0.593,0.551,1.154,1.072,1.555,1.559	c0.783,0.748,2.026,0.737,2.795-0.032l19.758-19.758c0.755-0.755,1.76-1.171,2.828-1.171s2.073,0.416,2.828,1.171l19.758,19.758	c0.78,0.779,2.048,0.779,2.828,0c0.323-0.38,0.838-0.857,1.383-1.363c1.259-1.168,2.983-2.768,2.993-4.02	c0.002-0.261-0.059-0.667-0.603-1.188L59.293,52.707c-0.391-0.391-0.391-1.023,0-1.414s1.023-0.391,1.414,0l17.879,17.879	c0.801,0.766,1.212,1.656,1.205,2.632c-0.016,2.116-2.022,3.977-3.633,5.471c-0.502,0.466-0.978,0.906-1.278,1.256	c-1.61,1.614-4.147,1.614-5.707,0.055L49.414,58.828c-0.756-0.755-2.072-0.755-2.828,0L26.828,78.586	C26.048,79.366,25.024,79.756,24,79.756z"/></svg>